<svg xmlns="http://www.w3.org/2000/svg" viewBox="0 0 32 32" width="32" height="32" shape-rendering="crispEdges">
  <style>
    .logo-main { fill: #9e4819; }
    .logo-gold { fill: #e09900; }
  </style>
  <rect x="1" y="0" width="12" height="1" class="logo-main" />
  <rect x="2" y="1" width="10" height="1" class="logo-main" />
  <rect x="3" y="2" width="8" height="1" class="logo-main" />
  <rect x="3" y="3" width="8" height="1" class="logo-main" />
  <rect x="4" y="4" width="6" height="1" class="logo-main" />
  <rect x="4" y="5" width="6" height="1" class="logo-main" />
  <rect x="4" y="6" width="6" height="1" class="logo-main" />
  <rect x="4" y="7" width="6" height="1" class="logo-main" />
  <rect x="4" y="8" width="6" height="1" class="logo-main" />
  <rect x="15" y="8" width="7" height="1" class="logo-main" />
  <rect x="4" y="9" width="6" height="1" class="logo-main" />
  <rect x="13" y="9" width="9" height="1" class="logo-main" />
  <rect x="23" y="9" width="2" height="1" class="logo-gold" />
  <rect x="4" y="10" width="6" height="1" class="logo-main" />
  <rect x="13" y="10" width="9" height="1" class="logo-main" />
  <rect x="23" y="10" width="3" height="1" class="logo-gold" />
  <rect x="4" y="11" width="6" height="1" class="logo-main" />
  <rect x="24" y="11" width="3" height="1" class="logo-gold" />
  <rect x="4" y="12" width="6" height="1" class="logo-main" />
  <rect x="25" y="12" width="3" height="1" class="logo-gold" />
  <rect x="4" y="13" width="6" height="1" class="logo-main" />
  <rect x="26" y="13" width="3" height="1" class="logo-gold" />
  <rect x="4" y="14" width="6" height="1" class="logo-main" />
  <rect x="23" y="14" width="2" height="1" class="logo-gold" />
  <rect x="27" y="14" width="3" height="1" class="logo-gold" />
  <rect x="4" y="15" width="6" height="1" class="logo-main" />
  <rect x="23" y="15" width="2" height="1" class="logo-gold" />
  <rect x="28" y="15" width="2" height="1" class="logo-gold" />
  <rect x="4" y="16" width="6" height="1" class="logo-main" />
  <rect x="21" y="16" width="2" height="1" class="logo-gold" />
  <rect x="4" y="17" width="6" height="1" class="logo-main" />
  <rect x="21" y="17" width="2" height="1" class="logo-gold" />
  <rect x="28" y="17" width="3" height="1" class="logo-main" />
  <rect x="4" y="18" width="6" height="1" class="logo-main" />
  <rect x="19" y="18" width="2" height="1" class="logo-gold" />
  <rect x="28" y="18" width="3" height="1" class="logo-main" />
  <rect x="4" y="19" width="6" height="1" class="logo-main" />
  <rect x="19" y="19" width="2" height="1" class="logo-gold" />
  <rect x="28" y="19" width="3" height="1" class="logo-main" />
  <rect x="4" y="20" width="6" height="1" class="logo-main" />
  <rect x="16" y="20" width="3" height="1" class="logo-gold" />
  <rect x="28" y="20" width="3" height="1" class="logo-main" />
  <rect x="4" y="21" width="6" height="1" class="logo-main" />
  <rect x="16" y="21" width="3" height="1" class="logo-gold" />
  <rect x="28" y="21" width="3" height="1" class="logo-main" />
  <rect x="4" y="22" width="6" height="1" class="logo-main" />
  <rect x="16" y="22" width="3" height="1" class="logo-gold" />
  <rect x="28" y="22" width="3" height="1" class="logo-main" />
  <rect x="4" y="23" width="6" height="1" class="logo-main" />
  <rect x="28" y="23" width="3" height="1" class="logo-main" />
  <rect x="4" y="24" width="6" height="1" class="logo-main" />
  <rect x="28" y="24" width="2" height="1" class="logo-main" />
  <rect x="4" y="25" width="6" height="1" class="logo-main" />
  <rect x="28" y="25" width="2" height="1" class="logo-main" />
  <rect x="4" y="26" width="6" height="1" class="logo-main" />
  <rect x="4" y="27" width="6" height="1" class="logo-main" />
  <rect x="24" y="27" width="2" height="1" class="logo-main" />
  <rect x="4" y="28" width="6" height="1" class="logo-main" />
  <rect x="23" y="28" width="3" height="1" class="logo-main" />
  <rect x="3" y="29" width="8" height="1" class="logo-main" />
  <rect x="21" y="29" width="5" height="1" class="logo-main" />
  <rect x="2" y="30" width="24" height="1" class="logo-main" />
  <rect x="1" y="31" width="24" height="1" class="logo-main" />
</svg>
