<?xml version="1.0" encoding="utf-8" ?><svg xmlns="http://www.w3.org/2000/svg" width="1024" height="1024" viewBox="0 0 1024 1024"><rect width="1024" height="1024" rx="180" fill="#0C0F15"/><g transform="translate(512 512) scale(1.5) translate(-513 -496.5)" fill="#34D399" stroke="#34D399" stroke-width="3.5" stroke-linejoin="round" stroke-linecap="round"><path d="M394.362 597.984C397.868 594.316 401.432 590.667 405.046 587.107C456.691 536.224 507.679 484.775 558.821 433.399C591.087 401.529 622.992 369.296 654.531 336.707L654.996 595.714C635.384 576.45 615.871 557.085 596.461 537.617L596.537 476.791L456.834 616.328C441.449 631.686 425.325 646.91 410.203 662.432C409.242 659.926 409.704 659.972 407.907 658.574C405.69 658.043 403.107 658.924 400.774 659.455C399.617 655.362 399.551 651.098 398.005 646.878C396.229 642.029 388.938 632.041 389.784 627.25C390.791 626.408 391.068 626.199 391.904 625.203C391.841 623.07 391.653 622.802 390.453 621.03C390.884 619.568 392.429 618.747 393.746 617.759L390.645 613.929C391.378 611.204 391.742 610.066 391.894 607.178C394.169 602.139 395.199 604.587 394.362 597.984Z"/><path d="M428.265 280.359C428.945 282.947 428.799 296.458 428.816 299.769L428.962 342.48C429.09 406.977 429.587 473.201 428.7 537.559C423.595 543.677 414.974 551.971 409.266 557.746L369.286 597.618C368.05 596.45 368.643 570.293 368.657 567.044L368.871 510.184L368.97 339.938C375.269 333.248 383.492 325.669 390.15 319.032C403.011 306.296 415.717 293.404 428.265 280.359Z"/><path d="M445.45 653.455L520.621 653.781C539.844 653.779 559.885 653.387 579.028 653.849C589.258 663.309 601.637 675.412 611.207 685.477C618.245 692.302 631.899 705.386 637.94 712.592C627.048 712.637 615.664 712.852 604.812 712.713L385.192 712.532C390.974 705.773 406.626 691.104 413.511 684.272L433.489 664.472C436.392 661.605 442.259 655.545 445.45 653.455Z"/><path d="M611.207 685.477C618.245 692.302 631.899 705.386 637.94 712.592C627.048 712.637 615.664 712.852 604.812 712.713C608.81 704.552 608.631 693.638 611.207 685.477Z"/><path d="M523.854 573.825L564.371 532.558C575.599 542.759 589.49 558.064 600.76 569.14C619.176 587.24 638.904 606.009 656.706 624.548L656.453 625.37C651.081 643.365 654.657 665.18 642.616 679.902C640.67 682.281 638.886 684.042 635.944 685.128C617.886 667.999 600.931 650.41 583.396 632.785C563.876 613.165 542.753 594.001 523.854 573.825Z"/><path d="M394.362 597.984C395.199 604.587 394.169 602.139 391.894 607.178C391.742 610.066 391.378 611.204 390.645 613.929L393.746 617.759C392.429 618.747 390.884 619.568 390.453 621.03C391.653 622.802 391.841 623.07 391.904 625.203C391.068 626.199 390.791 626.408 389.784 627.25C388.938 632.041 396.229 642.029 398.005 646.878C399.551 651.098 399.617 655.362 400.774 659.455C403.107 658.924 405.69 658.043 407.907 658.574C409.704 659.972 409.242 659.926 410.203 662.432C393.78 678.952 376.623 696.749 359.696 712.6C332.848 712.411 305.999 712.365 279.15 712.462C288.281 701.984 305.215 686.513 315.541 676.263L389.146 603.088L394.362 597.984Z"/><path d="M656.706 624.548L746.584 712.683L663.827 712.619C656.183 706.191 643.363 692.601 635.944 685.128C638.886 684.042 640.67 682.281 642.616 679.902C654.657 665.18 651.081 643.365 656.453 625.37L656.706 624.548Z"/><path d="M447.623 412.624C449.637 413.373 497.966 460.47 504.844 466.871C500.722 472.192 488.387 483.531 483.02 488.75C475.879 495.848 468.884 503.091 462.04 510.476C458.582 507.049 449.81 498.613 447.481 494.89C447.374 467.468 447.422 440.046 447.623 412.624Z"/></g></svg>
